<svg width="155" height="97" viewBox="0 0 155 97" fill="none" xmlns="http://www.w3.org/2000/svg">
<g clip-path="url(#clip0_1_4)">
<path d="M68.12 71.48C70.0933 70.6 71.96 70.16 73.72 70.16C76.0133 70.16 77.1867 71.5067 77.24 74.2H73C70.84 74.2 69.0933 74.7333 67.76 75.8C66.4533 76.8667 65.8 78.3733 65.8 80.32C65.8 82.1867 66.3733 83.68 67.52 84.8C68.6933 85.92 70.4 86.48 72.64 86.48C73.6 86.48 74.56 86.2533 75.52 85.8C76.48 85.3467 77.3333 84.76 78.08 84.04L78.76 86H81.76V73.04C81.76 71.7333 81.4 70.56 80.68 69.52C79.96 68.4533 78.9733 67.6133 77.72 67C76.4933 66.3867 75.1333 66.08 73.64 66.08C72.7333 66.08 71.5467 66.2533 70.08 66.6C68.64 66.9467 67.5733 67.3467 66.88 67.8L68.12 71.48ZM69.72 80.32C69.72 79.44 70 78.7067 70.56 78.12C71.1467 77.5067 71.9333 77.2 72.92 77.2H77.28V80.68C76.6133 81.3733 75.8667 81.92 75.04 82.32C74.2133 82.72 73.3867 82.92 72.56 82.92C71.68 82.92 70.9867 82.6667 70.48 82.16C69.9733 81.6267 69.72 81.0133 69.72 80.32ZM90.7219 73.64C91.7885 72.68 92.9619 71.8667 94.2419 71.2C95.5219 70.5333 96.6419 70.2 97.6019 70.2L96.6819 66.6C95.7485 66.6 94.6552 66.9333 93.4019 67.6C92.1752 68.2667 91.0819 69 90.1219 69.8L88.6419 66.6H86.2419V86H90.7219V73.64ZM108.984 66.08C110.958 66.08 112.678 66.5067 114.144 67.36C115.611 68.1867 116.731 69.3733 117.504 70.92C118.304 72.4667 118.704 74.28 118.704 76.36C118.704 78.36 118.304 80.1333 117.504 81.68C116.704 83.2 115.558 84.3867 114.064 85.24C112.598 86.0933 110.878 86.52 108.904 86.52C108.184 86.52 107.371 86.36 106.464 86.04C105.584 85.72 104.758 85.2933 103.984 84.76L103.064 86H100.704V58.2L105.184 57.76V67.12C106.491 66.4267 107.758 66.08 108.984 66.08ZM108.904 82.64C110.504 82.64 111.758 82.0533 112.664 80.88C113.598 79.7067 114.064 78.2 114.064 76.36C114.064 74.44 113.611 72.8933 112.704 71.72C111.798 70.52 110.531 69.92 108.904 69.92C108.211 69.92 107.558 70.0267 106.944 70.24C106.358 70.4533 105.771 70.7733 105.184 71.2V81.44C106.278 82.24 107.518 82.64 108.904 82.64ZM139.061 76.16C139.061 73.2267 138.328 70.8133 136.861 68.92C135.395 67.0267 133.235 66.08 130.381 66.08C128.435 66.08 126.741 66.5067 125.301 67.36C123.888 68.2133 122.795 69.4133 122.021 70.96C121.275 72.48 120.901 74.2533 120.901 76.28C120.901 79.4267 121.821 81.92 123.661 83.76C125.528 85.5733 128.221 86.48 131.741 86.48C134.355 86.48 136.741 85.7333 138.901 84.24L137.541 80.96C136.395 81.5467 135.408 81.9867 134.581 82.28C133.781 82.5467 132.861 82.68 131.821 82.68C128.088 82.68 126.021 80.9467 125.621 77.48H139.061V76.16ZM125.701 74.48C125.888 73.04 126.368 71.92 127.141 71.12C127.941 70.32 128.981 69.92 130.261 69.92C131.515 69.92 132.515 70.3067 133.261 71.08C134.008 71.8533 134.501 72.9867 134.741 74.48H125.701ZM146.933 73.64C147.999 72.68 149.173 71.8667 150.453 71.2C151.733 70.5333 152.853 70.2 153.813 70.2L152.893 66.6C151.959 66.6 150.866 66.9333 149.613 67.6C148.386 68.2667 147.293 69 146.333 69.8L144.853 66.6H142.453V86H146.933V73.64Z" fill="#99BAED"/>
<g clip-path="url(#clip1_1_4)">
<path d="M42.5803 5.77584C36.6236 6.29699 32.0962 11.5571 32.6169 17.5145L35.2968 48.1482L25.162 52.8735C21.7678 46.9757 14.3668 44.5552 8.08457 47.485C1.45122 50.5794 -1.41826 58.4628 1.67428 65.0971C4.76801 71.7299 12.6523 74.6013 19.2873 71.5076C23.8398 69.3846 26.6184 65.0039 26.9143 60.3216L39.3265 54.5333L40.5196 68.1754C36.6133 70.7733 34.209 75.3698 34.6457 80.3736C35.2841 87.6662 41.7121 93.0582 49.003 92.4212C56.2956 91.7827 61.6885 85.3552 61.0511 78.0643C60.447 71.1594 54.6501 65.9605 47.8458 65.969L46.8707 54.8294L74.7388 41.8338C80.1593 39.3065 82.4502 32.7552 79.9231 27.3359L45.8559 43.2238L42.5803 5.77584ZM19.6756 62.9207C17.7785 66.2067 13.5764 67.3326 10.2905 65.4355C7.00455 63.5383 5.87869 59.3362 7.77576 56.0503C9.67333 52.7636 13.8749 51.6385 17.1609 53.5356C20.4468 55.4327 21.5732 59.634 19.6756 62.9207ZM53.7886 82.6158C51.8914 85.9018 47.6894 87.0277 44.4034 85.1306C41.1175 83.2334 39.9916 79.0314 41.8887 75.7455C43.7863 72.4588 47.9879 71.3336 51.2738 73.2307C54.5597 75.1278 55.6861 79.3291 53.7886 82.6158Z" fill="#99BAED"/>
</g>
</g>
<defs>
<clipPath id="clip0_1_4">
<rect width="1920" height="5341" fill="white" transform="translate(-178 -11)"/>
</clipPath>
<clipPath id="clip1_1_4">
<rect width="74.2244" height="74.2244" fill="white" transform="translate(-8 62.2803) rotate(-60)"/>
</clipPath>
</defs>
</svg>
